<?xml version="1.0" encoding="UTF-8"?>
<svg version="1.1" xmlns="http://www.w3.org/2000/svg" width="225" height="225">
<path d="M0 0 C74.25 0 148.5 0 225 0 C225 74.25 225 148.5 225 225 C150.75 225 76.5 225 0 225 C0 150.75 0 76.5 0 0 Z " fill="#010101" transform="translate(0,0)"/>
<path d="M0 0 C1.32 0.33 2.64 0.66 4 1 C10.46280924 24.08146159 16.92561849 47.16292318 23.38842773 70.24438477 C23.65015274 71.17911621 23.91187775 72.11384766 24.18153381 73.0769043 C24.7609929 75.14640258 25.34045034 77.21590132 25.91990662 79.28540039 C26.22525833 80.37594727 26.53061005 81.46649414 26.84521484 82.59008789 C27.12062103 83.5736879 27.39602722 84.5572879 27.67977905 85.57069397 C28.52997061 88.60703589 29.38021582 91.64336277 30.23046875 94.6796875 C31.46274818 99.08058697 32.69442388 103.48165496 33.92578125 107.8828125 C34.24160156 109.01138672 34.55742188 110.13996094 34.8828125 111.30273438 C35.48583113 113.45763919 36.08870453 115.61258465 36.69140625 117.76757812 C37.10132812 119.23227539 37.10132812 119.23227539 37.51953125 120.7265625 C37.77428223 121.64083008 38.0290332 122.55509766 38.29150391 123.49707031 C38.72876695 125.04180524 39.17674886 126.58360726 39.64208984 128.12011719 C40.60522505 131.30243071 41 133.61257709 41 137 C50.9 137 60.8 137 71 137 C71.52851562 134.82792969 72.05703125 132.65585938 72.6015625 130.41796875 C75.2701494 119.64543008 78.33640791 108.98516135 81.375 98.3125 C81.93251399 96.34706826 82.48980652 94.38157369 83.046875 92.41601562 C85.66021385 83.20108977 88.28760366 73.99021062 90.921875 64.78125 C94.5993249 51.92415395 98.23575653 39.05545119 101.875 26.1875 C102.57028766 23.72981068 103.26560002 21.27212835 103.9609375 18.81445312 C105.64090872 12.87638232 107.32057892 6.93822642 109 1 C110.32 0.67 111.64 0.34 113 0 C113 37.29 113 74.58 113 113 C107.72 113 102.44 113 97 113 C97 120.92 97 128.84 97 137 C123.4 137 149.8 137 177 137 C177 146.24 177 155.48 177 165 C102.75 165 28.5 165 -48 165 C-48 155.76 -48 146.52 -48 137 C-26.88 137 -5.76 137 16 137 C16 129.08 16 121.16 16 113 C10.72 113 5.44 113 0 113 C0 75.71 0 38.42 0 0 Z " fill="#FCFCFC" transform="translate(48,60)"/>
<path d="M0 0 C74.25 0 148.5 0 225 0 C225 9.24 225 18.48 225 28 C182.43 28.495 182.43 28.495 139 29 C134.40270417 45.0759958 134.40270417 45.0759958 129.80664062 61.15234375 C127.93275463 67.70795423 126.05872349 74.26352298 124.18383789 80.81884766 C122.67251723 86.10304284 121.16183929 91.38742137 119.65160942 96.67192841 C119.07491446 98.68943596 118.49798675 100.706877 117.92082405 102.72425079 C117.11335043 105.54678648 116.30669975 108.36955612 115.50024414 111.19238281 C115.26072021 112.02891891 115.02119629 112.86545502 114.77441406 113.7273407 C114.55427139 114.49852737 114.33412872 115.26971405 114.10731506 116.06427002 C113.91650392 116.73164814 113.72569277 117.39902626 113.52909946 118.08662796 C112.98609147 120.05029715 112.48592571 122.02150391 112 124 C111.34 124 110.68 124 110 124 C106.10186533 111.56317693 102.4281059 99.10608272 99.19628906 86.47900391 C96.65967847 76.59225415 93.8345172 66.80742951 91 57 C88.36 47.76 85.72 38.52 83 29 C41.915 28.505 41.915 28.505 0 28 C0 18.76 0 9.52 0 0 Z " fill="#FEFEFE" transform="translate(0,0)"/>
<path d="M0 0 C0 39.93 0 79.86 0 121 C-18 121 -18 121 -24 117 C-24.14015411 102.46624033 -24.24556381 87.93258541 -24.31087303 73.39828873 C-24.34181316 66.64973615 -24.38399525 59.90160341 -24.45263672 53.15332031 C-24.51882078 46.64352742 -24.55368463 40.13400725 -24.56926346 33.62389374 C-24.58036862 31.13748041 -24.60205408 28.65109157 -24.63438034 26.16486359 C-24.67780012 22.68783022 -24.68393979 19.21261144 -24.68115234 15.73535156 C-24.702724 14.70244995 -24.72429565 13.66954834 -24.746521 12.60534668 C-24.72329023 9.93559597 -24.65105201 7.58912496 -24 5 C-16.57792165 -1.7809815 -10.67792189 0 0 0 Z " fill="#FEFEFE" transform="translate(225,52)"/>
<path d="M0 0 C11 0 11 0 14.14904785 1.32627869 C17.09652848 5.5839478 16.67991964 9.71942933 16.61523438 14.77954102 C16.62078339 15.87745972 16.6263324 16.97537842 16.63204956 18.10656738 C16.64387053 21.73945613 16.61954553 25.37110455 16.59375 29.00390625 C16.59203964 31.52448978 16.59210382 34.04507508 16.59387207 36.56565857 C16.59221746 41.8492163 16.57407233 47.13233981 16.54199219 52.41577148 C16.5050808 58.52459146 16.49631933 64.63294303 16.5032897 70.74185997 C16.50959364 76.61947927 16.49863094 82.49695936 16.47932434 88.37455559 C16.4722798 90.87567293 16.46917156 93.37680448 16.47001648 95.87793159 C16.46822447 99.36883497 16.44689349 102.85906596 16.41992188 106.34985352 C16.42285248 107.38941696 16.42578308 108.42898041 16.42880249 109.50004578 C16.4174527 110.44918854 16.40610291 111.3983313 16.39440918 112.37623596 C16.39068047 113.20157617 16.38695175 114.02691637 16.38311005 114.87726688 C15.9089678 117.50439047 15.06245455 118.35875451 13 120 C11 121 11 121 0 121 C0 81.07 0 41.14 0 0 Z " fill="#FEFEFE" transform="translate(0,52)"/>
</svg>
