<?xml version="1.0" encoding="UTF-8"?>
<svg version="1.1" xmlns="http://www.w3.org/2000/svg" width="512" height="529">
<path d="M0 0 C0.87240326 0.00215515 1.74480652 0.0043103 2.64364624 0.00653076 C16.73991199 0.06216397 30.48942836 0.70939742 44.375 3.3125 C45.4283252 3.50585938 46.48165039 3.69921875 47.56689453 3.8984375 C106.78586721 15.10740327 164.69397029 47.69607561 201.375 96.3125 C201.88595215 96.97411133 202.3969043 97.63572266 202.92333984 98.31738281 C238.02623289 143.83410078 256.90550884 198.36963135 256.6875 255.875 C256.68534485 256.89573608 256.6831897 257.91647217 256.68096924 258.96813965 C256.63130099 273.61079998 256.32079688 287.92238899 253.375 302.3125 C253.18164062 303.30910645 252.98828125 304.30571289 252.7890625 305.33251953 C244.9062654 345.22701502 228.39768958 383.82007312 202.375 415.3125 C201.94509766 415.83714844 201.51519531 416.36179687 201.07226562 416.90234375 C183.71597771 438.03394101 183.71597771 438.03394101 173.5859375 446.46875 C171.85349686 447.91347081 170.15754864 449.4019713 168.4765625 450.90625 C152.3638589 465.27135613 134.57641291 476.53683343 115.375 486.3125 C114.62653809 486.69631836 113.87807617 487.08013672 113.10693359 487.47558594 C81.98833203 503.26711509 46.29541031 512.48619399 11.375 513.3125 C10.58802734 513.33296387 9.80105469 513.35342773 8.99023438 513.37451172 C-51.17527967 514.74190977 -111.71266697 496.7227264 -158.625 458.3125 C-159.15254883 457.88114746 -159.68009766 457.44979492 -160.22363281 457.00537109 C-181.35861577 439.64222822 -181.35861577 439.64222822 -189.77734375 429.52734375 C-191.2341308 427.78104723 -192.73619359 426.07252023 -194.25390625 424.37890625 C-231.25236136 382.91034323 -255.37480738 325.06002866 -255.86328125 269.2578125 C-255.8730751 268.32650513 -255.88286896 267.39519775 -255.89295959 266.43566895 C-256.06570685 245.74383774 -255.90741956 225.64910429 -251.625 205.3125 C-251.41069336 204.28125 -251.19638672 203.25 -250.97558594 202.1875 C-240.80991723 154.83649582 -217.10854256 112.08635249 -183.625 77.3125 C-183.12323242 76.78881836 -182.62146484 76.26513672 -182.10449219 75.72558594 C-175.34445743 68.70471383 -168.32061815 62.3157208 -160.625 56.3125 C-159.64144531 55.52359375 -158.65789062 54.7346875 -157.64453125 53.921875 C-135.30398827 36.14658871 -109.69609945 22.34335439 -82.625 13.3125 C-81.4191626 12.90378662 -81.4191626 12.90378662 -80.18896484 12.48681641 C-70.26926844 9.17226888 -60.24447304 6.65810241 -50 4.5625 C-49.03610352 4.36374268 -48.07220703 4.16498535 -47.07910156 3.96020508 C-31.44457659 0.92160572 -15.8995386 -0.0713112 0 0 Z " fill="#1DD65F" transform="translate(255.625,7.6875)"/>
<path d="M0 0 C3.21123002 0.00534759 6.42231917 0.00002431 9.63354492 -0.00634766 C29.0067868 -0.01459984 48.23865933 0.55973318 67.4753418 2.94287109 C68.56162872 3.07400803 68.56162872 3.07400803 69.66986084 3.20779419 C80.83869827 4.56081087 91.88550526 6.25151488 102.89038086 8.60498047 C105.58701379 9.1666485 108.29052775 9.67472218 110.9987793 10.17724609 C127.2100097 13.25614939 142.76430987 17.9344761 158.4128418 23.13037109 C159.48679199 23.48083496 160.56074219 23.83129883 161.66723633 24.19238281 C174.46173935 28.40123246 186.71660695 33.43890138 198.8503418 39.25537109 C199.45958496 39.54519867 200.06882812 39.83502625 200.6965332 40.13363647 C224.25681047 51.41040847 224.25681047 51.41040847 229.2253418 62.94287109 C232.01893035 71.40391228 230.33915949 78.31892086 226.4128418 86.13037109 C223.24068341 91.62064522 218.2939883 94.18038883 212.4128418 96.13037109 C202.59094327 98.21231966 196.10799428 95.3954335 187.91723633 90.46655273 C170.16342738 79.83818442 150.08689093 73.24673563 130.4128418 67.13037109 C129.17018555 66.73333984 127.9275293 66.33630859 126.6472168 65.92724609 C89.46817463 54.61188543 48.75132748 50.52737433 10.0612793 50.84912109 C6.25388792 50.88065229 2.44691438 50.89015785 -1.3605957 50.89599609 C-18.70841683 50.95001839 -36.06649882 51.0825788 -53.2746582 53.50537109 C-54.24105225 53.63766113 -55.20744629 53.76995117 -56.203125 53.90625 C-69.35981538 55.74908293 -82.06133795 58.35601814 -94.8215332 62.04443359 C-102.89872502 64.37374825 -112.49612657 66.16110166 -120.5871582 62.94287109 C-128.29825193 58.2840853 -131.79766131 53.49886177 -134.5871582 45.13037109 C-135.43747847 36.62716842 -134.26017915 30.05046547 -129.11450195 23.15771484 C-121.25157678 14.40254284 -108.83059813 12.68921199 -97.8371582 10.19287109 C-97.08837402 10.02117401 -96.33958984 9.84947693 -95.56811523 9.6725769 C-83.32072376 6.89240229 -71.03806977 4.81819234 -58.5871582 3.19287109 C-57.82052856 3.09136749 -57.05389893 2.98986389 -56.26403809 2.88528442 C-37.53146363 0.44485101 -18.87582236 -0.03723324 0 0 Z " fill="#000100" transform="translate(213.587158203125,141.86962890625)"/>
<path d="M0 0 C1.20027832 0.20318848 2.40055664 0.40637695 3.63720703 0.61572266 C11.12768355 1.91632971 18.57128199 3.3850613 26 5 C26.72251953 5.15404297 27.44503906 5.30808594 28.18945312 5.46679688 C32.84166489 6.47733737 37.42476756 7.69054012 42 9 C43.01336426 9.2882666 44.02672852 9.5765332 45.07080078 9.87353516 C67.90344608 16.45606567 89.43940108 24.94153127 110.625 35.75 C111.65012695 36.26852539 112.67525391 36.78705078 113.73144531 37.32128906 C121.22990762 41.25404901 129.39929074 45.95135577 133 54 C135.05680055 61.10531098 134.21881217 67.46608641 131 74 C127.65182833 79.02225751 123.8935282 81.75637426 118 83 C109.4054816 84.20771701 103.94752351 81.39547967 96.6875 77.0625 C94.55190654 75.85276743 92.41251214 74.64972234 90.26953125 73.453125 C89.20943848 72.86080078 88.1493457 72.26847656 87.05712891 71.65820312 C70.08352149 62.45162737 51.36854539 56.73068805 33 51 C32.11103027 50.72140137 31.22206055 50.44280273 30.30615234 50.15576172 C19.9196577 46.97332427 9.33104658 45.07266849 -1.375 43.3125 C-2.60404053 43.10971436 -3.83308105 42.90692871 -5.09936523 42.69799805 C-24.33679904 39.68763189 -43.41369847 38.58898716 -62.875 38.625 C-63.98873993 38.62554382 -65.10247986 38.62608765 -66.24996948 38.62664795 C-94.84704089 38.69059432 -122.41966871 41.93344068 -149.9375 50.16015625 C-156.85936622 52.05837211 -162.66387876 51.53360608 -169 48 C-173.75801552 43.9989415 -176.6017255 39.86093846 -177.46875 33.6328125 C-177.57458601 21.75272034 -177.57458601 21.75272034 -173.57421875 16.6015625 C-166.20769682 9.10708609 -155.90182253 7.35913466 -146 5 C-145.09121094 4.78311523 -144.18242187 4.56623047 -143.24609375 4.34277344 C-127.62375445 0.69505391 -111.96530347 -1.51458631 -96 -3 C-95.06816895 -3.09498779 -94.13633789 -3.18997559 -93.17626953 -3.2878418 C-62.37947819 -6.10347589 -30.47938743 -5.18824514 0 0 Z " fill="#000100" transform="translate(274,234)"/>
<path d="M0 0 C1.09132233 -0.00440094 2.18264465 -0.00880188 3.30703735 -0.01333618 C23.37011355 -0.04723323 43.07181957 1.94620793 62.75 5.875 C63.83506836 6.08922607 64.92013672 6.30345215 66.03808594 6.52416992 C74.98784072 8.34138239 83.66142552 10.58585154 92.3125 13.5 C93.50794434 13.89131104 93.50794434 13.89131104 94.72753906 14.29052734 C106.35726488 18.13237158 117.51155238 22.79309395 128.5625 28.0625 C130.23965088 28.85720703 130.23965088 28.85720703 131.95068359 29.66796875 C138.87172307 33.04276776 145.18208113 36.83666489 151.3125 41.5 C151.8801709 41.91910645 152.4478418 42.33821289 153.03271484 42.77001953 C155.60803246 45.13945496 156.29814907 47.39152766 156.74609375 50.77734375 C156.92738191 56.01272611 156.82713419 60.25630072 154.8125 65.125 C150.06051223 69.63938838 145.36001979 72.08219262 138.64599609 71.92822266 C133.62296209 71.00643968 129.35263897 68.05172761 125 65.5 C75.727711 37.79557655 16.99935923 28.64087019 -38.91455078 36.13183594 C-42.25122821 36.57484611 -45.59216251 36.97724257 -48.93359375 37.3828125 C-65.4809411 39.44039416 -65.4809411 39.44039416 -81.8125 42.75 C-97.01463334 46.39259474 -97.01463334 46.39259474 -103.8671875 43.6171875 C-108.29378333 40.84367725 -110.27773864 37.55855546 -111.6875 32.5 C-112.32880707 27.44970686 -112.30084835 23.7266967 -110 19.125 C-94.84935281 1.92696805 -52.59125246 2.32186866 -30.84411621 0.69525146 C-20.57389632 0.05999037 -10.28657773 0.00995514 0 0 Z " fill="#000100" transform="translate(218.6875,313.5)"/>
</svg>
